<svg width="60" height="60" viewBox="0 0 60 60" fill="none" xmlns="http://www.w3.org/2000/svg">
<circle cx="30" cy="30" r="30" fill="#F08F8C"/>
<path d="M46.0333 29.5332C45.4994 29.5332 45.0665 29.966 45.0665 30.5C45.0665 38.5319 38.532 45.0663 30.5001 45.0663C22.4681 45.0663 15.9337 38.5319 15.9337 30.5C15.9337 22.4681 22.4681 15.9336 30.5001 15.9336C32.9493 15.9336 35.3316 16.5418 37.4584 17.7005L36.2497 18.9092C35.9732 19.1857 35.8905 19.6015 36.0401 19.9628C36.1898 20.324 36.5423 20.5596 36.9333 20.5596H41.5593C42.0932 20.5596 42.5261 20.1267 42.5261 19.5928V14.9669C42.5261 14.5758 42.2906 14.2233 41.9293 14.0737C41.5679 13.9239 41.1521 14.0067 40.8757 14.2833L38.8765 16.2824C36.3442 14.7873 33.4651 14.0001 30.5 14.0001C26.0927 14.0001 21.9491 15.7164 18.8327 18.8328C15.7163 21.9493 14 26.0928 14 30.5C14 34.9073 15.7163 39.0508 18.8327 42.1672C21.9492 45.2837 26.0927 47 30.5 47C34.9073 47 39.0509 45.2837 42.1673 42.1672C45.2838 39.0508 47 34.9073 47 30.5C47.0001 29.966 46.5673 29.5332 46.0333 29.5332Z" fill="white"/>
<path d="M37.0506 29.1013H31.8987V23.9494C31.8987 23.4251 31.4737 23 30.9494 23C30.4251 23 30 23.4251 30 23.9494V30.0506C30 30.5749 30.4251 31 30.9494 31H37.0506C37.5749 31 38 30.5749 38 30.0506C38 29.5263 37.5749 29.1013 37.0506 29.1013Z" fill="white"/>
</svg>
