<svg width="60" height="60" viewBox="0 0 60 60" fill="none" xmlns="http://www.w3.org/2000/svg">
<circle cx="30" cy="30" r="30" fill="#F08F8C"/>
<path fill-rule="evenodd" clip-rule="evenodd" d="M30.0188 14C34.4075 14 38.3087 16.0721 40.6719 19.7558C43.1101 23.3628 43.6728 27.9674 42.1723 31.9965C41.7972 33.1093 41.122 34.1837 40.2968 35.1814L30.769 46.6163C30.5439 46.8465 30.3188 47 29.9812 47C29.6436 47 29.4186 46.8465 29.1935 46.6163L19.7032 35.1814C18.878 34.1837 18.2403 33.0709 17.8277 31.9965C16.3272 27.9674 16.8899 23.3628 19.3281 19.7558C21.7663 16.0721 25.6675 14 30.0188 14ZM24.1295 27.3151C24.1295 30.6151 26.7928 33.3395 30.0188 33.3395C33.2822 33.3395 35.908 30.6151 35.908 27.3151C35.908 24.0151 33.2447 21.2907 30.0188 21.2907C26.7928 21.2907 24.1295 24.0151 24.1295 27.3151Z" fill="white"/>
</svg>
