<svg width="60" height="60" viewBox="0 0 60 60" fill="none" xmlns="http://www.w3.org/2000/svg">
<circle cx="30" cy="30" r="30" fill="#F08F8C"/>
<path d="M42.7105 35.0942C40.9217 35.0942 39.1695 34.8149 37.5088 34.2669C36.6984 33.9876 35.778 34.2028 35.2453 34.7462L31.9531 37.2326C28.1754 35.2164 25.7577 32.8002 23.769 29.05L26.1882 25.8356C26.7972 25.2266 27.0155 24.3352 26.7545 23.5003C26.2019 21.829 25.9211 20.0753 25.9211 18.2895C25.9211 17.0272 24.8939 16 23.6316 16H18.2895C17.0272 16 16 17.0272 16 18.2895C16 33.0169 27.9831 45 42.7105 45C43.9728 45 45 43.9728 45 42.7105V37.3837C45 36.1214 43.9728 35.0942 42.7105 35.0942Z" fill="white"/>
</svg>
