<svg width="289" height="428" viewBox="0 0 289 428" fill="none" xmlns="http://www.w3.org/2000/svg">
<g clip-path="url(#clip0_12_240)">
<path d="M33.96 328.938C34.1651 328.63 34.383 328.322 34.5241 327.976C34.2292 328.45 33.9343 328.912 33.6267 329.374C33.3062 329.874 32.9728 330.374 32.6523 330.874C32.8831 330.528 33.1267 330.182 33.3574 329.835L33.96 328.938Z" stroke="white" stroke-width="0.34" stroke-miterlimit="10"/>
<path d="M26.0629 340.274C26.0629 340.274 26.1014 340.222 26.1142 340.197C26.0886 340.222 26.0757 340.248 26.0629 340.274Z" stroke="white" stroke-width="0.34" stroke-miterlimit="10"/>
<path d="M32.6139 330.938C32.6139 330.938 32.6395 330.9 32.6524 330.874C30.5242 334.016 28.3577 337.132 26.127 340.21C27.9218 337.786 29.6781 335.324 31.3704 332.811C31.7934 332.195 32.2037 331.567 32.6139 330.938Z" fill="#EA593A" stroke="white" stroke-width="0.34" stroke-miterlimit="10"/>
<path d="M25.9347 340.453C25.9347 340.453 26.0244 340.338 26.0629 340.274C26.0244 340.338 25.9732 340.389 25.9347 340.453Z" fill="#EA593A" stroke="white" stroke-width="0.34" stroke-miterlimit="10"/>
<path d="M134.366 295.52C134.468 295.34 134.571 295.16 134.686 294.981" stroke="white" stroke-width="0.34" stroke-miterlimit="10"/>
<path d="M134.084 308.33C133.763 307.715 133.507 307.074 133.289 306.42C133.507 307.074 133.776 307.715 134.084 308.33Z" fill="#EA593A" stroke="white" stroke-width="0.34" stroke-miterlimit="10"/>
<path d="M137.007 292.211C136.609 292.57 136.25 292.955 135.891 293.352C136.237 292.955 136.609 292.57 137.007 292.211Z" fill="#EA593A" stroke="white" stroke-width="0.34" stroke-miterlimit="10"/>
<path d="M150.814 289.582C151.493 289.839 152.147 290.146 152.762 290.505C152.134 290.146 151.493 289.839 150.814 289.582Z" fill="#EA593A" stroke="white" stroke-width="0.34" stroke-miterlimit="10"/>
<path d="M134.084 308.33C134.225 308.6 134.366 308.856 134.52 309.1C134.814 309.587 135.135 310.061 135.494 310.51C135.148 310.061 134.814 309.587 134.52 309.1C134.366 308.843 134.225 308.587 134.084 308.33Z" fill="#EA593A"/>
<path d="M134.52 309.1C134.366 308.856 134.225 308.6 134.084 308.33C134.225 308.587 134.366 308.843 134.52 309.1ZM134.52 309.1C134.814 309.587 135.135 310.061 135.494 310.51C135.148 310.061 134.814 309.587 134.52 309.1Z" stroke="white" stroke-width="0.34" stroke-miterlimit="10"/>
<path d="M152.762 290.506C153.698 291.044 154.557 291.685 155.339 292.416C154.57 291.685 153.698 291.031 152.762 290.506Z" fill="#EA593A" stroke="white" stroke-width="0.34" stroke-miterlimit="10"/>
<path d="M149.711 139.097C151.532 138.584 153.198 137.7 154.621 136.52C153.198 137.687 151.532 138.584 149.711 139.097Z" fill="#EA593A"/>
<path d="M148.827 139.315C149.121 139.251 149.416 139.174 149.711 139.097M149.711 139.097C151.532 138.584 153.198 137.7 154.621 136.52C153.198 137.687 151.532 138.584 149.711 139.097Z" stroke="white" stroke-width="0.34" stroke-miterlimit="10"/>
<path d="M134.494 119.272C134.045 120.029 133.661 120.824 133.366 121.67C133.661 120.837 134.045 120.029 134.494 119.272Z" fill="#EA593A"/>
<path d="M139.314 114.489C137.327 115.643 135.673 117.297 134.494 119.272M134.494 119.272C134.045 120.029 133.661 120.824 133.366 121.67C133.661 120.837 134.045 120.029 134.494 119.272Z" stroke="white" stroke-width="0.34" stroke-miterlimit="10"/>
<path d="M133.045 122.734C133.135 122.375 133.25 122.016 133.366 121.67C133.237 122.016 133.135 122.375 133.045 122.734Z" fill="#EA593A" stroke="white" stroke-width="0.34" stroke-miterlimit="10"/>
<path d="M146.07 315.653C144.224 315.653 142.481 315.281 140.878 314.614C142.468 315.281 144.224 315.653 146.07 315.653Z" fill="#EA593A"/>
<path d="M146.07 315.653C144.224 315.653 142.481 315.281 140.878 314.614C142.468 315.281 144.224 315.653 146.07 315.653ZM146.07 315.653C150.006 315.653 153.557 313.96 156.019 311.267" stroke="white" stroke-width="0.34" stroke-miterlimit="10"/>
<path d="M194.196 0.910453C164.287 0.910454 133.699 0.551386 104.688 8.86105C86.3935 14.0931 68.8558 21.5179 52.4976 31.251C44.28 36.1496 36.3701 41.5997 28.8705 47.537C27.0372 48.9989 7.44836 65.9004 8.02526 66.4646C8.0509 66.4903 8.06372 66.5159 8.08936 66.5416C8.115 66.5672 8.12782 66.58 8.14064 66.5929C18.294 76.6594 27.1141 88.5083 34.742 100.575C34.742 100.588 34.7676 100.601 34.7676 100.627C34.742 100.652 34.7292 100.691 34.7163 100.716C12.8199 133.711 0.961484 172.734 0.615347 212.307C0.435869 233.299 3.42291 254.292 9.57648 274.361C12.4994 283.927 16.1403 293.263 20.435 302.29C22.5631 306.766 24.8578 311.164 27.3064 315.473C28.332 317.281 29.6268 318.974 30.7678 320.718C31.5498 321.898 32.319 323.077 33.0754 324.283C33.4215 324.834 33.8318 325.347 34.1651 325.924C34.4471 326.399 34.7164 326.95 34.6394 327.514C34.6138 327.668 34.5753 327.809 34.5112 327.963C34.3702 328.309 34.1523 328.617 33.9472 328.925L33.3446 329.823C33.1139 330.169 32.8703 330.515 32.6395 330.861C32.6267 330.887 32.6139 330.9 32.6011 330.925C32.1908 331.554 31.7678 332.182 31.3575 332.798C29.6653 335.298 27.909 337.773 26.1142 340.197C26.1014 340.223 26.0757 340.248 26.0629 340.274C26.0244 340.338 25.9732 340.389 25.9347 340.453C20.4991 347.904 14.6916 355.059 8.14065 361.625C8.12783 361.638 8.11501 361.651 8.08937 361.664C8.06373 361.689 8.03809 361.715 8.01245 361.74C7.98681 361.766 11.0636 364.844 11.4354 365.19C16.7172 370.05 21.8067 375.026 27.3834 379.565C32.7549 383.925 38.3444 388.016 44.1134 391.837C55.6385 399.455 67.8943 405.943 80.663 411.214C93.4188 416.472 106.687 420.511 120.225 423.23C133.737 425.935 147.519 427.333 161.3 427.333L262.385 427.333C272.564 427.513 283.782 427.359 296.204 426.73C296.333 426.73 296.461 426.718 296.589 426.705C316.524 425.666 336.485 425.243 356.432 425.781C357.445 425.807 358.458 425.846 359.471 425.871C361.778 425.948 364.086 425.987 366.406 425.987C435.275 425.987 496.49 393.222 535.309 342.415C541.398 334.452 546.885 326.027 551.923 317.358C553.59 314.383 555.18 311.357 556.692 308.292C559.731 301.457 561.474 294.109 559.487 286.607C556.462 275.181 546.103 266.782 535.873 261.832C535.488 261.652 535.104 261.46 534.719 261.28C534.36 261.101 534.014 260.921 533.655 260.742C524.309 256.036 514.964 250.598 506.99 244.469C497.631 237.288 492.247 226.144 492.26 214.346L492.26 214.038C492.26 202.138 497.67 190.853 507.131 183.621C515.079 177.542 524.361 172.144 533.655 167.463C534.014 167.284 534.36 167.104 534.719 166.925C535.104 166.745 535.488 166.565 535.873 166.373C536.027 166.296 536.193 166.206 536.347 166.129C548.949 159.512 560.974 148.715 560.372 133.314C560.218 129.416 559.167 125.722 557.705 122.157C557.487 121.721 557.282 121.273 557.064 120.837C556.821 120.336 556.577 119.836 556.321 119.349C555.769 118.233 555.193 117.131 554.616 116.041C554.616 116.028 554.603 116.002 554.59 115.989C554.552 115.925 554.526 115.861 554.487 115.797C554.462 115.758 554.449 115.72 554.423 115.681C553.59 114.104 552.731 112.527 551.859 110.975C548.629 105.192 545.129 99.5751 541.385 94.1379C539.45 91.3552 537.437 88.6109 535.386 85.9179C511.041 54.0257 477.888 29.2377 439.544 15.1703C438.454 14.7727 437.365 14.388 436.275 14.0033C436.095 13.9392 435.903 13.8751 435.724 13.811C413.994 6.30919 390.674 2.24406 366.406 2.24406C364.086 2.24406 361.778 2.28255 359.471 2.35948C338.331 3.03914 317.306 1.53877 296.204 1.35924C294.922 1.35924 293.64 1.34645 292.358 1.34645C259.642 -4.18403e-05 226.913 0.897604 194.183 0.897605L194.196 0.910453ZM155.493 255.176C156.801 255.484 158.083 255.83 159.352 256.241C161.095 256.805 162.813 257.459 164.467 258.203C181.197 265.782 192.837 282.619 192.837 302.175C192.837 310.664 190.645 318.653 186.786 325.578C178.556 340.402 162.736 350.443 144.583 350.443C134.417 350.443 124.994 347.288 117.225 341.928C112.418 338.62 108.251 334.452 104.931 329.656C99.5211 321.859 96.3418 312.395 96.3418 302.175C96.3418 275.515 117.943 253.907 144.596 253.907C148.352 253.907 152.006 254.356 155.506 255.164L155.493 255.176ZM144.583 174.503C117.931 174.503 96.3289 152.896 96.3289 126.235C96.3289 116.028 99.5083 106.564 104.918 98.7544C108.239 93.9584 112.418 89.7907 117.225 86.4822C125.007 81.122 134.43 77.9674 144.583 77.9674C162.736 77.9674 178.556 87.9954 186.786 102.832C190.632 109.77 192.837 117.746 192.837 126.235C192.837 145.804 181.197 162.629 164.467 170.207C162.813 170.964 161.108 171.618 159.352 172.169C158.095 172.58 156.801 172.939 155.493 173.234C151.98 174.042 148.339 174.49 144.583 174.49L144.583 174.503Z" fill="#F08F8C" stroke="white" stroke-width="0.95" stroke-miterlimit="10"/>
<path d="M117.213 86.4823C112.405 89.7908 108.239 93.9585 104.905 98.7545C99.4954 106.551 96.3161 116.015 96.3161 126.235C96.3161 152.896 117.918 174.503 144.57 174.503C148.327 174.503 151.98 174.055 155.48 173.247C156.788 172.939 158.07 172.593 159.339 172.182C161.082 171.618 162.8 170.964 164.454 170.22C181.184 162.642 192.825 145.804 192.825 126.248C192.825 117.759 190.632 109.77 186.774 102.845C178.543 88.0211 162.723 77.9803 144.57 77.9803C134.404 77.9803 124.981 81.1349 117.213 86.4951L117.213 86.4823ZM132.596 126.133C132.596 124.953 132.75 123.812 133.045 122.722C133.135 122.363 133.25 122.004 133.366 121.657C133.661 120.824 134.045 120.016 134.494 119.259C135.673 117.285 137.327 115.63 139.314 114.476C140.058 114.04 140.853 113.681 141.673 113.386C143.045 112.912 144.532 112.655 146.07 112.655C153.506 112.655 159.544 118.682 159.544 126.133C159.544 130.326 157.634 134.058 154.634 136.52C153.211 137.687 151.544 138.585 149.724 139.097C149.429 139.174 149.134 139.251 148.839 139.315C147.942 139.508 147.019 139.61 146.07 139.61C138.635 139.61 132.596 133.583 132.596 126.133Z" fill="white" stroke="black" stroke-width="3.36" stroke-miterlimit="10"/>
<path d="M96.3289 302.188C96.3289 312.395 99.5083 321.859 104.918 329.669C108.239 334.465 112.418 338.632 117.213 341.941C124.994 347.301 134.417 350.456 144.57 350.456C162.723 350.456 178.543 340.428 186.774 325.591C190.619 318.653 192.825 310.677 192.825 302.188C192.825 282.619 181.184 265.795 164.454 258.216C162.8 257.459 161.095 256.805 159.339 256.254C158.07 255.843 156.788 255.484 155.48 255.189C151.967 254.382 148.327 253.933 144.57 253.933C117.918 253.933 96.3161 275.54 96.3161 302.201L96.3289 302.188ZM140.878 314.614C139.545 314.05 138.327 313.293 137.25 312.357C136.609 311.793 136.019 311.177 135.494 310.51C135.148 310.062 134.814 309.587 134.519 309.1C134.366 308.843 134.225 308.587 134.084 308.33C133.763 307.715 133.507 307.074 133.289 306.42C132.84 305.086 132.596 303.675 132.596 302.188C132.596 300.328 132.968 298.559 133.661 296.943C133.866 296.456 134.109 295.981 134.366 295.52C134.468 295.34 134.571 295.161 134.686 294.981C135.045 294.404 135.455 293.865 135.904 293.352C136.25 292.955 136.622 292.57 137.019 292.211C137.173 292.07 137.34 291.929 137.507 291.788C137.84 291.519 138.186 291.249 138.545 291.018C139.083 290.659 139.647 290.326 140.237 290.044C142.006 289.198 143.981 288.71 146.07 288.71C147.032 288.71 147.98 288.813 148.878 289.018C149.185 289.082 149.48 289.159 149.775 289.249C150.121 289.351 150.467 289.467 150.814 289.595C151.493 289.852 152.147 290.159 152.762 290.518C153.698 291.057 154.557 291.698 155.339 292.429C157.929 294.878 159.531 298.341 159.531 302.188C159.531 305.689 158.198 308.869 156.006 311.267C153.544 313.96 149.993 315.653 146.057 315.653C144.211 315.653 142.468 315.281 140.865 314.614L140.878 314.614Z" fill="white" stroke="black" stroke-width="3.36" stroke-miterlimit="10"/>
<path d="M140.224 290.044C139.635 290.326 139.071 290.647 138.532 291.018C138.173 291.262 137.827 291.519 137.494 291.788C137.327 291.929 137.16 292.07 137.007 292.211C136.609 292.57 136.25 292.955 135.891 293.352C135.443 293.865 135.045 294.404 134.673 294.981C134.558 295.16 134.455 295.34 134.353 295.52C134.096 295.981 133.853 296.443 133.648 296.943C132.968 298.559 132.584 300.328 132.584 302.188C132.584 303.663 132.827 305.086 133.276 306.42C133.494 307.074 133.763 307.715 134.071 308.33C134.212 308.6 134.353 308.856 134.507 309.1C134.802 309.587 135.122 310.062 135.481 310.51C136.007 311.177 136.596 311.806 137.237 312.357C138.314 313.293 139.532 314.062 140.865 314.614C142.455 315.281 144.211 315.653 146.057 315.653C149.993 315.653 153.544 313.96 156.006 311.267C158.198 308.869 159.531 305.689 159.531 302.188C159.531 298.341 157.916 294.878 155.339 292.429C154.57 291.698 153.698 291.044 152.762 290.518C152.134 290.159 151.493 289.852 150.814 289.595C150.48 289.467 150.134 289.351 149.775 289.249C149.48 289.159 149.185 289.095 148.878 289.018C147.968 288.826 147.032 288.71 146.07 288.71C143.981 288.71 141.994 289.185 140.237 290.044L140.224 290.044Z" fill="black"/>
<path d="M159.531 126.133C159.531 118.695 153.506 112.655 146.057 112.655C144.519 112.655 143.045 112.912 141.66 113.386C140.84 113.668 140.045 114.04 139.301 114.476C137.314 115.63 135.66 117.284 134.481 119.259C134.032 120.016 133.648 120.811 133.353 121.657C133.225 122.004 133.122 122.363 133.032 122.722C132.75 123.812 132.584 124.953 132.584 126.133C132.584 133.57 138.609 139.61 146.057 139.61C147.006 139.61 147.929 139.508 148.827 139.315C149.121 139.251 149.416 139.174 149.711 139.097C151.532 138.584 153.198 137.7 154.621 136.52C157.621 134.058 159.531 130.326 159.531 126.133Z" fill="black"/>
<path d="M185.556 214.308C177.133 203.998 167.556 199.022 160.07 196.624C159.595 202.42 159.352 208.281 159.352 214.205C159.352 220.13 159.608 226.118 160.095 231.979C167.569 229.581 177.146 224.605 185.568 214.308L185.556 214.308Z" fill="white" stroke="white" stroke-width="0.34" stroke-miterlimit="10"/>
<path d="M201.042 214.333C201.042 214.333 201.004 214.359 200.991 214.372L201.042 214.346L201.042 214.333Z" fill="white"/>
<path d="M160.005 196.611C160.005 196.611 160.044 196.611 160.057 196.624C160.057 196.611 160.057 196.598 160.057 196.586C160.044 196.586 160.018 196.598 160.005 196.611Z" fill="#00006D"/>
<path d="M159.954 232.03C159.954 232.03 160.044 232.068 160.082 232.094C160.082 232.056 160.082 232.03 160.082 231.991C160.044 232.004 160.006 232.017 159.954 232.03Z" fill="#00006D"/>
<path d="M160.07 196.586C160.07 196.586 160.07 196.611 160.07 196.624C167.556 199.022 177.133 203.998 185.556 214.308C177.146 224.605 167.569 229.581 160.082 231.979C160.082 232.017 160.082 232.043 160.082 232.081C162.403 233.171 164.967 233.723 167.569 233.659C168.556 233.633 169.544 233.53 170.518 233.325C178.3 231.697 190.53 227.131 200.991 214.359C200.991 214.359 201.016 214.333 201.016 214.321C201.016 214.321 201.016 214.321 201.029 214.308C190.735 201.702 178.697 197.073 170.89 195.367C169.774 195.124 168.646 194.995 167.531 194.983C164.928 194.944 162.377 195.496 160.057 196.586L160.07 196.586Z" fill="black"/>
</g>
<defs>
<clipPath id="clip0_12_240">
<rect width="428" height="561" fill="white" transform="translate(0 428) rotate(-90)"/>
</clipPath>
</defs>
</svg>
