<svg width="18" height="19" viewBox="0 0 18 19" fill="none" xmlns="http://www.w3.org/2000/svg">
<path d="M17.4727 12.9766C17.7539 13.1172 17.9648 13.4336 17.9648 13.7852C17.9648 13.8203 17.9648 13.8906 17.9648 13.9609L17.1211 17.6172C17.0156 18.0039 16.6992 18.25 16.3125 18.25C7.27734 18.25 0 10.9727 0 1.9375C0 1.55078 0.246094 1.23438 0.632812 1.12891L4.28906 0.285156C4.35938 0.285156 4.42969 0.25 4.46484 0.25C4.81641 0.25 5.13281 0.460938 5.27344 0.777344L6.96094 4.71484C6.99609 4.82031 7.03125 4.92578 7.03125 5.03125C7.03125 5.3125 6.89062 5.55859 6.71484 5.69922L4.57031 7.45703C5.87109 10.1992 8.05078 12.3789 10.793 13.6797L12.5508 11.5352C12.6914 11.3594 12.9375 11.2188 13.1836 11.2188C13.3242 11.2188 13.4297 11.2539 13.5352 11.2891L17.4727 12.9766Z" fill="#FF8989"/>
</svg>
